<?xml version="1.0" standalone="no"?>
<!DOCTYPE svg PUBLIC "-//W3C//DTD SVG 20010904//EN"
 "http://www.w3.org/TR/2001/REC-SVG-20010904/DTD/svg10.dtd">
<svg version="1.0" xmlns="http://www.w3.org/2000/svg"
 width="5858.000000pt" height="7483.000000pt" viewBox="0 0 5858.000000 7483.000000"
 preserveAspectRatio="xMidYMid meet">

<g transform="translate(0.000000,7483.000000) scale(0.100000,-0.100000)"
fill="#ffffff" stroke="none">
<path d="M27200 71090 l0 -3730 1120 0 1120 0 0 3730 0 3730 -1120 0 -1120 0
0 -3730z"/>
<path d="M47362 68668 c-60 -68 -1494 -1693 -3186 -3613 -1693 -1919 -3083
-3494 -3090 -3499 -8 -6 -68 36 -187 129 -1474 1161 -3125 2108 -4884 2800
-3767 1483 -7989 1740 -11930 725 -4283 -1103 -8070 -3653 -10724 -7223 -555
-746 -1066 -1551 -1516 -2382 -124 -229 -424 -833 -540 -1085 -1396 -3046
-1974 -6382 -1689 -9755 248 -2941 1177 -5801 2704 -8330 1116 -1849 2523
-3490 4183 -4878 1947 -1630 4206 -2866 6622 -3623 1447 -454 2934 -733 4465
-839 486 -33 700 -40 1340 -40 640 0 854 7 1340 40 2775 192 5440 963 7870
2278 3197 1730 5861 4339 7655 7497 1286 2265 2097 4750 2394 7340 166 1444
168 2963 5 4405 -366 3248 -1530 6311 -3415 8987 -547 775 -1244 1619 -1864
2257 -93 95 -165 176 -162 183 3 7 1443 1643 3201 3636 1758 1993 3196 3627
3196 3631 0 7 -1655 1473 -1671 1479 -4 2 -56 -52 -117 -120z m-17542 -4367
c1130 -64 2037 -188 3060 -417 2305 -515 4573 -1537 6490 -2922 284 -206 708
-531 709 -544 1 -3 -130 -154 -290 -335 -160 -180 -3051 -3458 -6426 -7283
-3374 -3825 -6139 -6955 -6143 -6955 -5 0 -1296 1994 -2870 4430 -1575 2437
-2864 4432 -2866 4434 -5 6 -1884 -1211 -1884 -1221 0 -10 7314 -11335 7334
-11355 9 -10 1590 1778 7181 8118 3944 4472 7274 8249 7402 8394 l232 264 154
-162 c2875 -3025 4591 -6931 4872 -11092 52 -778 52 -1662 0 -2440 -133 -1966
-583 -3870 -1343 -5685 -300 -716 -710 -1534 -1099 -2190 -917 -1546 -2049
-2932 -3392 -4154 -2776 -2524 -6289 -4113 -10006 -4525 -3455 -383 -6894 224
-9975 1761 -1508 752 -2863 1682 -4108 2820 -379 348 -946 923 -1297 1318
-2500 2811 -4046 6328 -4419 10055 -138 1369 -119 2762 55 4125 443 3481 1937
6799 4253 9444 476 545 1088 1162 1612 1627 1651 1468 3548 2611 5619 3386
1781 666 3622 1033 5585 1113 263 11 1319 4 1560 -9z"/>
<path d="M8905 67592 c-451 -416 -819 -761 -819 -768 2 -14 5033 -5474 5044
-5474 5 0 378 341 830 757 l821 756 -39 41 c-22 23 -1150 1247 -2507 2721
-1357 1474 -2477 2690 -2489 2702 l-21 22 -820 -757z"/>
<path d="M10 49340 l0 -1120 3730 0 3730 0 0 1120 0 1120 -3730 0 -3730 0 0
-1120z"/>
<path d="M50380 49340 l0 -1120 3730 0 3730 0 0 1120 0 1120 -3730 0 -3730 0
0 -1120z"/>
<path d="M28152 25010 c-2884 -434 -5246 -791 -5249 -794 -5 -5 322 -2204 329
-2212 4 -3 10530 1575 10535 1579 1 1 -74 500 -165 1110 -158 1053 -167 1107
-187 1106 -11 0 -2380 -356 -5263 -789z"/>
<path d="M28131 20169 c-2775 -489 -5047 -891 -5049 -894 -3 -3 82 -500 189
-1106 l193 -1101 41 7 c111 17 10089 1776 10091 1778 3 2 -369 2131 -381 2185
-3 13 -12 22 -23 21 -9 0 -2287 -401 -5061 -890z"/>
<path d="M2860 13048 c-480 -44 -914 -212 -1295 -501 -106 -81 -319 -290 -410
-402 -262 -323 -420 -696 -465 -1100 -13 -118 -13 -388 1 -495 58 -471 277
-937 646 -1373 320 -377 862 -883 1584 -1476 616 -508 941 -813 1091 -1026
230 -326 270 -664 111 -934 -46 -78 -174 -216 -263 -283 -293 -223 -731 -274
-1105 -129 -339 131 -684 467 -964 941 -44 74 -86 142 -93 151 -12 15 -54 -8
-403 -220 -214 -130 -537 -326 -718 -435 l-327 -198 46 -86 c154 -285 327
-554 481 -747 122 -154 346 -380 488 -494 310 -249 663 -425 1044 -521 256
-64 445 -89 741 -97 890 -24 1612 236 2145 771 314 316 515 667 625 1093 86
331 104 788 44 1138 -69 405 -232 770 -511 1137 -272 360 -474 553 -1401 1336
-886 750 -1305 1133 -1450 1327 -125 167 -174 389 -121 547 69 206 282 377
535 430 137 28 336 21 474 -16 122 -34 328 -136 450 -223 166 -120 394 -352
568 -580 l70 -93 624 551 c342 302 627 556 632 564 12 16 -159 210 -384 435
-579 579 -1097 872 -1729 980 -231 39 -525 50 -761 28z"/>
<path d="M15190 8455 l0 -4605 835 0 835 0 0 4605 0 4605 -835 0 -835 0 0
-4605z"/>
<path d="M51920 8455 l0 -4605 824 0 824 0 5 1643 c5 1637 10 1875 43 2177 27
242 91 457 206 682 81 160 163 273 293 403 194 196 387 301 648 356 122 26
350 31 467 10 221 -39 400 -129 541 -272 191 -194 297 -463 343 -869 46 -412
56 -853 56 -2657 l0 -1473 820 0 820 0 0 2268 c0 1465 -4 2317 -10 2407 -40
540 -180 964 -425 1290 -238 316 -637 597 -1035 729 -254 84 -472 117 -775
117 -311 0 -541 -38 -835 -140 -353 -122 -759 -360 -1087 -638 -34 -29 -65
-53 -68 -53 -3 0 -5 727 -5 1615 l0 1615 -825 0 -825 0 0 -4605z"/>
<path d="M29930 11990 l0 -840 798 -2 797 -3 3 -3647 2 -3648 865 0 865 0 2
3648 3 3647 818 3 817 2 0 840 0 840 -2485 0 -2485 0 0 -840z"/>
<path d="M10295 10659 c-715 -31 -1363 -281 -1960 -757 -150 -120 -443 -412
-559 -557 -423 -532 -654 -1102 -727 -1800 -16 -155 -16 -605 0 -760 73 -691
309 -1277 728 -1800 116 -146 369 -403 519 -529 441 -369 931 -606 1480 -715
447 -89 984 -87 1446 4 868 172 1635 669 2133 1381 363 517 580 1105 635 1722
16 173 7 646 -14 797 -91 635 -334 1206 -726 1705 -97 124 -389 418 -510 513
-454 361 -992 617 -1525 727 -164 34 -361 60 -505 65 -74 3 -160 7 -190 8 -30
2 -131 0 -225 -4z m565 -1594 c632 -116 1143 -562 1348 -1180 76 -228 105
-426 106 -715 0 -502 -121 -892 -385 -1241 -272 -359 -654 -595 -1094 -675
-126 -23 -527 -27 -645 -6 -398 71 -705 232 -971 509 -351 368 -521 823 -521
1403 -1 580 166 1026 521 1393 203 210 394 338 646 432 105 39 262 78 380 94
113 15 504 7 615 -14z"/>
<path d="M21010 10659 c-610 -27 -1153 -229 -1650 -615 -140 -108 -416 -381
-531 -524 -399 -497 -642 -1085 -729 -1762 -94 -732 -12 -1458 231 -2050 233
-568 638 -1084 1146 -1461 554 -410 1229 -609 1926 -567 491 30 898 156 1294
403 129 81 349 248 476 361 l107 96 0 -345 0 -345 830 0 830 0 0 3320 0 3320
-830 0 -830 0 0 -361 0 -361 -97 92 c-341 322 -762 569 -1178 690 -313 91
-625 125 -995 109z m805 -1556 c503 -66 938 -339 1226 -771 226 -338 332 -753
316 -1236 -12 -354 -78 -638 -209 -899 -93 -186 -179 -308 -327 -460 -316
-326 -675 -492 -1143 -529 -488 -38 -947 113 -1298 426 -373 333 -581 748
-641 1275 -16 143 -7 535 16 661 59 326 159 574 333 820 86 122 299 336 422
422 363 257 809 357 1305 291z"/>
<path d="M29009 10659 c-344 -23 -675 -172 -932 -418 -151 -145 -248 -276
-354 -476 l-53 -100 0 413 0 412 -715 0 -715 0 0 -3320 0 -3320 831 0 832 0
-5 1663 c-6 1875 -2 2032 53 2456 64 496 186 807 403 1025 222 223 455 263
779 132 48 -20 101 -43 118 -52 17 -9 35 -12 39 -7 4 4 121 323 260 708 139
385 255 705 257 711 5 14 -133 73 -266 114 -172 53 -341 72 -532 59z"/>
<path d="M38825 10659 c-747 -30 -1398 -268 -1960 -715 -141 -112 -416 -387
-529 -529 -405 -507 -634 -1058 -726 -1745 -27 -198 -38 -651 -21 -855 56
-678 259 -1251 619 -1744 444 -610 1043 -1035 1751 -1242 743 -217 1726 -204
2470 33 577 183 1078 525 1480 1008 114 136 205 259 199 265 -9 10 -1389 655
-1399 655 -6 0 -45 -30 -87 -68 -355 -312 -736 -492 -1187 -558 -166 -25 -524
-25 -685 -1 -328 51 -601 156 -840 325 -122 86 -316 280 -402 402 -131 184
-247 456 -296 690 -11 52 -17 98 -15 103 2 4 1207 7 2677 7 l2673 0 6 179 c14
399 -30 850 -118 1216 -258 1075 -991 1932 -1991 2328 -473 188 -1016 270
-1619 246z m548 -1424 c589 -77 1105 -424 1375 -925 40 -74 104 -230 117 -282
l7 -28 -1801 0 c-991 0 -1801 3 -1801 6 0 3 33 71 74 152 136 269 261 446 423
602 253 245 637 420 1038 474 139 19 428 19 568 1z"/>
<path d="M47135 10658 c-1008 -34 -1943 -433 -2595 -1104 -156 -161 -257 -286
-385 -479 -308 -462 -485 -944 -557 -1515 -20 -162 -17 -710 5 -870 102 -737
382 -1333 894 -1902 495 -553 1157 -905 1953 -1042 637 -110 1373 -91 1950 50
758 186 1398 591 1880 1190 l60 76 -607 415 c-335 229 -631 431 -660 450 l-51
35 -38 -44 c-221 -255 -509 -457 -819 -573 -249 -94 -488 -135 -813 -142 -256
-6 -381 3 -580 43 -571 113 -1050 468 -1301 964 -311 614 -269 1449 99 2010
85 128 159 217 276 330 220 212 445 349 734 444 270 90 504 121 845 113 249
-6 359 -19 553 -68 342 -85 601 -236 925 -540 86 -82 122 -109 135 -104 14 5
1360 743 1371 751 2 2 -18 34 -45 71 -408 572 -996 1004 -1682 1237 -478 162
-953 225 -1547 204z"/>
</g>
</svg>
