<?xml version="1.0" encoding="UTF-8"?>
<!DOCTYPE svg PUBLIC "-//W3C//DTD SVG 1.1//EN" "http://www.w3.org/Graphics/SVG/1.1/DTD/svg11.dtd">
<svg xmlns="http://www.w3.org/2000/svg" version="1.1" width="11568px" height="11553px" style="shape-rendering:geometricPrecision; text-rendering:geometricPrecision; image-rendering:optimizeQuality; fill-rule:evenodd; clip-rule:evenodd" xmlns:xlink="http://www.w3.org/1999/xlink">
<g><path style="opacity:1" fill="#ffffff" d="M 5437.5,-0.5 C 5587.5,-0.5 5737.5,-0.5 5887.5,-0.5C 5887.5,497.167 5887.5,994.833 5887.5,1492.5C 5737.5,1492.5 5587.5,1492.5 5437.5,1492.5C 5437.5,994.833 5437.5,497.167 5437.5,-0.5 Z"/></g>
<g><path style="opacity:0.998" fill="#ffffff" d="M 9492.5,1204.5 C 9605.47,1303.47 9718.14,1402.8 9830.5,1502.5C 9830,1503.5 9829.5,1504.5 9829,1505.5C 9401.79,1989.04 8974.96,2472.87 8548.5,2957C 8884.91,3299.72 9149.74,3691.88 9343,4133.5C 9555.2,4625.83 9661.7,5140.33 9662.5,5677C 9661.68,6220.08 9552.84,6740.25 9336,7237.5C 9120.39,7723.04 8819.23,8147.54 8432.5,8511C 8063.1,8855.52 7641.1,9119.19 7166.5,9302C 6649.69,9497.08 6115.35,9579.41 5563.5,9549C 4948.79,9512.93 4375.12,9341.6 3842.5,9035C 3333.84,8738.04 2912.34,8346.21 2578,7859.5C 2250.13,7376.45 2041.13,6845.11 1951,6265.5C 1875.63,5762.09 1896.63,5262.76 2014,4767.5C 2141.6,4245.05 2365.94,3770.38 2687,3343.5C 3045.75,2871.28 3487.58,2499.11 4012.5,2227C 4568.76,1943.44 5159.43,1800.94 5784.5,1799.5C 6378.17,1800.76 6942.17,1929.93 7476.5,2187C 7740.51,2315.97 7986.34,2471.81 8214,2654.5C 8640.41,2171.32 9066.58,1687.99 9492.5,1204.5 Z M 5745.5,2100.5 C 6375.01,2095.96 6965.35,2244.79 7516.5,2547C 7692.15,2644.45 7858.15,2755.79 8014.5,2881C 7157.32,3853.01 6299.99,4824.84 5442.5,5796.5C 5060.26,5205.71 4678.26,4614.71 4296.5,4023.5C 4295.28,4022.39 4293.94,4022.22 4292.5,4023C 4167.3,4104.36 4041.97,4185.53 3916.5,4266.5C 4406.47,5024.97 4896.64,5783.3 5387,6541.5C 6374.01,5422.33 7361.18,4303.33 8348.5,3184.5C 8736.63,3583.73 9017.47,4050.07 9191,4583.5C 9332.45,5028.78 9385.78,5484.44 9351,5950.5C 9305.69,6526.41 9132.69,7060.07 8832,7551.5C 8565.43,7980.75 8223.93,8339.59 7807.5,8628C 7365.9,8929.68 6879.9,9123.68 6349.5,9210C 5877.22,9283.58 5408.55,9265.25 4943.5,9155C 4434.23,9029.84 3975.23,8806.18 3566.5,8484C 3187.56,8182.19 2881.39,7820.36 2648,7398.5C 2356.06,6862.42 2209.23,6288.75 2207.5,5677.5C 2209.73,5037.19 2369.9,4439.86 2688,3885.5C 2941.81,3450.98 3272.31,3084.14 3679.5,2785C 4089.15,2487.75 4542.82,2285.41 5040.5,2178C 5273.13,2129.21 5508.13,2103.37 5745.5,2100.5 Z"/></g>
<g><path style="opacity:0.998" fill="#ffffff" d="M 1942.5,1294.5 C 1947.7,1298.19 1952.53,1302.52 1957,1307.5C 2289.65,1668.98 2622.48,2030.32 2955.5,2391.5C 2845.68,2493.16 2735.68,2594.66 2625.5,2696C 2620.24,2692.77 2615.41,2688.6 2611,2683.5C 2278.35,2322.02 1945.52,1960.68 1612.5,1599.5C 1722.52,1497.81 1832.52,1396.14 1942.5,1294.5 Z"/></g>
<g><path style="opacity:0.999" fill="#ffffff" d="M -0.5,4871.5 C 497.167,4871.5 994.833,4871.5 1492.5,4871.5C 1492.5,5021.5 1492.5,5171.5 1492.5,5321.5C 994.833,5321.5 497.167,5321.5 -0.5,5321.5C -0.5,5171.5 -0.5,5021.5 -0.5,4871.5 Z"/></g>
<g><path style="opacity:0.999" fill="#ffffff" d="M 11567.5,4871.5 C 11567.5,5021.5 11567.5,5171.5 11567.5,5321.5C 11069.8,5321.5 10572.2,5321.5 10074.5,5321.5C 10074.5,5171.5 10074.5,5021.5 10074.5,4871.5C 10572.2,4871.5 11069.8,4871.5 11567.5,4871.5 Z"/></g>
<g><path style="opacity:0.998" fill="#ffffff" d="M 6680.5,9803.5 C 6682.5,9803.5 6684.5,9803.5 6686.5,9803.5C 6708.06,9950.89 6730.06,10098.2 6752.5,10245.5C 6752.43,10246.8 6752.1,10247.9 6751.5,10249C 6048.83,10354.5 5346.16,10460 4643.5,10565.5C 4621.5,10416.8 4599.5,10268.2 4577.5,10119.5C 5278.71,10014.7 5979.71,9909.35 6680.5,9803.5 Z"/></g>
<g><path style="opacity:0.998" fill="#ffffff" d="M 6635.5,10751.5 C 6637.5,10751.5 6639.5,10751.5 6641.5,10751.5C 6667.38,10899.5 6693.05,11047.5 6718.5,11195.5C 6042.52,11314.3 5366.52,11433 4690.5,11551.5C 4665.05,11404.8 4639.38,11258.1 4613.5,11111.5C 4613.57,11110.2 4613.9,11109.1 4614.5,11108C 5288.34,10989.4 5962.01,10870.5 6635.5,10751.5 Z"/></g>
</svg>
